HIERARCHY
ROOT Hips
{
	OFFSET 0.00000 0.00000 0.00000
	CHANNELS 6 Xposition Yposition Zposition Zrotation Yrotation Xrotation 
	JOINT LHipJoint
	{
		OFFSET 0 0 0
		CHANNELS 3 Zrotation Yrotation Xrotation
		JOINT LeftHip
		{
			OFFSET 1.84395 -1.68683 0.74144
			CHANNELS 3 Zrotation Yrotation Xrotation
			JOINT LeftKnee
			{
				OFFSET 2.27037 -6.23779 0.00000
				CHANNELS 3 Zrotation Yrotation Xrotation
				JOINT LeftAnkle
				{
					OFFSET 2.56918 -7.05877 0.00000
					CHANNELS 3 Zrotation Yrotation Xrotation
					JOINT LeftToe
					{
						OFFSET 0.22276 -0.61202 1.71784
						CHANNELS 3 Zrotation Yrotation Xrotation
						End Site
						{
							OFFSET 0.00000 -0.00000 0.91613
						}
					}
				}
			}
		}
	}
	JOINT RHipJoint
	{
		OFFSET 0 0 0
		CHANNELS 3 Zrotation Yrotation Xrotation
		JOINT RightHip
		{
			OFFSET -1.76833 -1.68684 0.74144
			CHANNELS 3 Zrotation Yrotation Xrotation
			JOINT RightKnee
			{
				OFFSET -2.49360 -6.85110 0.00000
				CHANNELS 3 Zrotation Yrotation Xrotation
				JOINT RightAnkle
				{
					OFFSET -2.55538 -7.02085 0.00000
					CHANNELS 3 Zrotation Yrotation Xrotation
					JOINT RightToe
					{
						OFFSET -0.21516 -0.59115 1.68050
						CHANNELS 3 Zrotation Yrotation Xrotation
						End Site
						{
							OFFSET -0.00000 -0.00000 0.89604
						}
					}
				}
			}
		}
	}
	JOINT lowerback
	{
		OFFSET 0 0 0
		CHANNELS 3 Zrotation Yrotation Xrotation
		JOINT Chest
		{
			OFFSET 0.06382 1.72312 -0.19613
			CHANNELS 3 Zrotation Yrotation Xrotation
			JOINT Chest2
			{
				OFFSET -0.00055 1.73507 0.23859
				CHANNELS 3 Zrotation Yrotation Xrotation
				JOINT lowerneck
				{
					OFFSET 0 0 0
					CHANNELS 3 Zrotation Yrotation Xrotation
					JOINT Neck
					{
						OFFSET 0.03638 1.65562 0.09633
						CHANNELS 3 Zrotation Yrotation Xrotation
						JOINT Head
						{
							OFFSET 0.06388 1.62807 -0.32386
							CHANNELS 3 Zrotation Yrotation Xrotation
							End Site
							{
								OFFSET 0.00995 1.67644 -0.12021
							}
						}
					}
				}
				JOINT LeftCollar
				{
					OFFSET 0 0 0
					CHANNELS 3 Zrotation Yrotation Xrotation
					JOINT LeftShoulder
					{
						OFFSET 3.09648 1.42991 0.28122
CHANNELS 3 Zrotation Xrotation Yrotation
						JOINT LeftElbow
						{
OFFSET 0 -5.118780 -0.000000
CHANNELS 3 Zrotation Xrotation Yrotation
							JOINT LeftWrist
							{
OFFSET 0 -3.599710 0.000000
CHANNELS 3 Zrotation Xrotation Yrotation
								JOINT lhand
								{
									OFFSET 0 0 0
CHANNELS 3 Zrotation Xrotation Yrotation
									JOINT LFingers
									{
OFFSET 0 -0.628770 0.000000
CHANNELS 3 Zrotation Xrotation Yrotation
										End Site
										{
OFFSET 0 -0.506930 0.000000
										}
									}
								}
								JOINT LThumb
								{
OFFSET 0 0.000000 0.000000
CHANNELS 3 Zrotation Xrotation Yrotation
									End Site
									{
OFFSET 0 -0.514670 0.514670
									}
								}
							}
						}
					}
				}
				JOINT RightCollar
				{
					OFFSET 0 0 0
					CHANNELS 3 Zrotation Yrotation Xrotation
					JOINT RightShoulder
					{
						OFFSET -3.33565 1.14597 0.05047
CHANNELS 3 Zrotation Xrotation Yrotation
						JOINT RightElbow
						{
OFFSET 0 -5.490200 0.000000
CHANNELS 3 Zrotation Xrotation Yrotation
							JOINT RightWrist
							{
OFFSET 0 -3.206590 -0.000000
CHANNELS 3 Zrotation Xrotation Yrotation
								JOINT rhand
								{
									OFFSET 0 0 0
CHANNELS 3 Zrotation Xrotation Yrotation
									JOINT RFingers
									{
OFFSET 0 -0.691880 0.000000
CHANNELS 3 Zrotation Xrotation Yrotation
										End Site
										{
OFFSET 0 -0.557810 0.000000
										}
									}
								}
								JOINT RThumb
								{
OFFSET 0 0.000000 0.000000
CHANNELS 3 Zrotation Xrotation Yrotation
									End Site
									{
OFFSET 0 -0.566330 0.566330
									}
								}
							}
						}
					}
				}
			}
		}
	}
}
MOTION
Frames: 11
Frame Time: 0.008333333333333333
-0.423800 17.504700 7.900200 -8.803700 -4.383900 8.904200 0.000000 0.000000 0.000000 -18.887000 -38.035200 23.203000 0.051200 -1.459600 -4.014500 -3.839400 40.751600 -44.002300 1.217100 6.997900 19.709300 0.000000 0.000000 0.000000 26.753700 26.463100 7.012500 -0.004800 -0.448800 1.233300 0.875900 -19.447100 -18.661400 -0.004300 0.424800 -1.167400 5.694400 0.386600 1.919400 1.982600 1.203500 -10.767200 -1.163200 0.123700 -12.681300 -9.016100 -11.235500 -6.977700 9.003300 -16.660300 22.303500 2.643700 -7.776400 9.723700 -0.000000 0.000000 0.000000 -1.709800 10.924000 -11.704500 10.698800 -17.825100 1.682600 9.935800 35.289300 12.184300 0.000000 0.000000 0.000000 -7.125000 0.000000 0.000000 -12.002100 17.771900 -7.942700 -0.000000 0.000000 0.000000 1.231100 9.347600 3.889200 -10.977000 -18.253000 -1.768700 6.707900 47.796800 28.421900 0.000000 0.000000 0.000000 7.125000 0.000000 -0.000000 38.585600 54.003700 -9.640800
-0.427613 17.502193 7.900646 -8.898386 -4.370632 8.976342 0.000000 0.000000 0.000000 -18.870586 -38.304279 23.348284 0.055321 -1.518157 -4.175786 -4.420660 41.671232 -43.663877 1.097162 6.654809 18.697149 0.000000 0.000000 0.000000 26.853192 26.503805 6.927782 -0.005200 -0.464465 1.276240 0.871938 -19.464245 -18.756816 -0.003091 0.356456 -0.979408 5.785613 0.411447 1.827155 1.980597 1.239020 -10.802059 -1.219244 0.131432 -12.663009 -8.937506 -11.221756 -7.104339 8.824899 -16.631436 22.575310 2.565706 -7.762634 9.816830 0.000000 0.000000 0.000000 -1.616203 10.951847 -12.610775 10.593240 -17.662093 1.650414 11.696369 32.683042 12.025886 0.000000 0.000000 0.000000 -7.125000 0.000000 0.000000 -10.791483 17.832428 -7.095859 0.000000 0.000000 0.000000 1.293332 9.383863 3.881895 -11.065165 -18.388043 -1.796417 6.698902 47.824961 28.365501 0.000000 0.000000 0.000000 7.125000 0.000000 0.000000 38.532222 53.960416 -9.580397
-0.432641 17.504229 7.904667 -8.896982 -4.362252 8.968523 0.000000 0.000000 0.000000 -19.047475 -38.548006 23.608515 0.059365 -1.572063 -4.324444 -5.051909 42.616639 -43.276733 0.947858 6.198447 17.361802 0.000000 0.000000 0.000000 26.881722 26.498759 6.964156 -0.004932 -0.452440 1.243201 0.881555 -19.507768 -18.721583 -0.002894 0.311325 -0.855402 5.761752 0.422832 1.726688 1.957546 1.241140 -10.786386 -1.230832 0.135635 -12.580890 -8.854455 -11.233473 -7.267419 8.641468 -16.639813 22.876922 2.477145 -7.764247 9.930949 0.000000 0.000000 0.000000 -1.518851 10.990313 -13.591502 10.520210 -17.549199 1.628289 13.398543 29.966547 11.975080 0.000000 0.000000 0.000000 -7.125000 0.000000 0.000000 -9.612201 17.781267 -6.307803 0.000000 0.000000 0.000000 1.306801 9.350586 3.994954 -11.062519 -18.384027 -1.795610 6.103976 47.982719 28.235712 0.000000 0.000000 0.000000 7.125000 0.000000 0.000000 37.893902 53.966981 -9.388454
-0.444438 17.513791 7.922975 -8.511643 -4.303843 9.235329 0.000000 0.000000 0.000000 -19.515711 -39.087454 23.604540 0.063934 -1.631655 -4.488679 -6.182774 44.133989 -42.367827 0.699502 5.346055 14.898349 0.000000 0.000000 0.000000 26.422046 26.813267 6.963496 -0.003271 -0.369759 1.016011 0.922363 -19.825616 -18.887790 -0.005644 -0.482354 1.325389 5.238762 0.432209 1.027891 1.848047 1.146542 -10.794841 -1.043482 0.145396 -12.158281 -8.947292 -11.247859 -7.404749 8.760040 -16.694194 23.088739 2.512021 -7.774567 10.058711 0.000000 0.000000 0.000000 -1.393814 11.080594 -15.226479 10.454095 -17.446707 1.608443 15.991500 25.785125 11.779880 0.000000 0.000000 0.000000 -7.125000 0.000000 0.000000 -7.809149 17.807157 -5.094562 0.000000 0.000000 0.000000 1.178072 9.124618 4.546261 -10.785625 -17.958831 -1.709234 6.070381 47.386081 28.436113 0.000000 0.000000 0.000000 7.125000 0.000000 0.000000 38.024203 54.134225 -9.595401
-0.450000 17.515130 7.926094 -8.458110 -4.317039 9.412401 0.000000 0.000000 0.000000 -19.451532 -39.217641 23.415025 0.062871 -1.618247 -4.451754 -6.077850 44.053074 -42.605328 0.715358 5.405161 15.067783 0.000000 0.000000 0.000000 26.295470 26.903478 6.800368 -0.002976 -0.353764 0.971963 0.940059 -19.902684 -18.818626 -0.011888 -0.705114 1.937724 5.141509 0.504118 0.737967 1.747958 1.205799 -10.797112 -1.102283 0.181580 -11.975596 -8.657081 -11.338929 -7.560144 8.657890 -16.834379 23.089871 2.404369 -7.819150 10.065527 0.000000 0.000000 0.000000 -1.150746 11.011787 -15.255691 10.389392 -17.346295 1.589037 15.961383 25.942897 11.870647 0.000000 0.000000 0.000000 -7.125000 0.000000 0.000000 -7.829946 17.716165 -5.124163 0.000000 0.000000 0.000000 1.320436 8.973735 4.401668 -10.664349 -17.771926 -1.672006 6.085152 47.287855 28.450497 0.000000 0.000000 0.000000 7.125000 0.000000 0.000000 38.049107 54.143101 -9.611997
-0.453120 17.514510 7.923725 -8.534569 -4.353993 9.436044 0.000000 0.000000 0.000000 -19.329255 -39.224972 23.386714 0.062891 -1.618313 -4.451974 -6.026967 44.018842 -42.733089 0.722904 5.432943 15.147632 0.000000 0.000000 0.000000 26.368748 26.890538 6.745186 -0.003000 -0.355616 0.976986 0.937721 -19.855886 -18.739955 -0.010246 -0.652623 1.793368 5.202214 0.544163 0.763039 1.717577 1.263076 -10.788811 -1.175420 0.201541 -11.977076 -8.480232 -11.388207 -7.633562 8.646765 -16.904513 22.922999 2.361626 -7.839257 10.008564 0.000000 0.000000 0.000000 -1.033167 11.012286 -15.138823 10.372164 -17.319612 1.583907 15.798834 26.240920 11.731393 0.000000 0.000000 0.000000 -7.125000 0.000000 0.000000 -7.944491 17.870108 -5.172576 0.000000 0.000000 0.000000 1.448861 8.939325 4.240579 -10.644733 -17.741658 -1.666044 6.003716 47.314571 28.480337 0.000000 0.000000 0.000000 7.125000 0.000000 0.000000 37.999743 54.182326 -9.635394
-0.456567 17.516071 7.919518 -8.554230 -4.359001 9.388608 0.000000 0.000000 0.000000 -19.334246 -39.281604 23.465636 0.063773 -1.629496 -4.482683 -6.146965 44.193089 -42.689500 0.709797 5.384347 15.008086 0.000000 0.000000 0.000000 26.416496 26.861450 6.779756 -0.002985 -0.351633 0.966135 0.932697 -19.827880 -18.745833 -0.010794 -0.670345 1.842110 5.170783 0.531150 0.868831 1.755403 1.253498 -10.763477 -1.117178 0.201910 -12.014172 -8.599182 -11.387104 -7.560157 8.844993 -16.903851 22.638547 2.453752 -7.838858 9.923284 0.000000 0.000000 0.000000 -1.108383 11.010574 -15.018406 10.471184 -17.473224 1.613568 14.877255 27.601006 10.058362 0.000000 0.000000 0.000000 -7.125000 0.000000 0.000000 -8.615276 19.639210 -5.277516 0.000000 0.000000 0.000000 1.412078 8.920137 4.270495 -10.636872 -17.729435 -1.663630 5.970512 47.273290 28.543027 0.000000 0.000000 0.000000 7.125000 0.000000 0.000000 38.020433 54.238942 -9.698195
-0.459873 17.515649 7.915540 -8.590182 -4.359653 9.428214 0.000000 0.000000 0.000000 -19.176950 -39.240564 23.327700 0.063949 -1.631348 -4.487965 -6.135423 44.150553 -42.622462 0.718922 5.418085 15.104947 0.000000 0.000000 0.000000 26.432424 26.821769 6.700623 -0.002816 -0.343164 0.942846 0.933273 -19.781698 -18.627665 -0.007924 -0.573706 1.576584 5.145444 0.495693 0.869081 1.839566 1.211886 -10.770316 -1.007194 0.189050 -12.027021 -8.747067 -11.351380 -7.455183 8.970310 -16.834335 22.377105 2.537190 -7.816943 9.829128 0.000000 0.000000 0.000000 -1.309696 10.997190 -14.276471 10.420768 -17.395117 1.598502 14.509928 28.639755 9.589129 0.000000 0.000000 0.000000 -7.125000 0.000000 0.000000 -8.887406 20.137583 -5.348377 0.000000 0.000000 0.000000 1.311998 8.935862 4.287538 -10.607635 -17.684356 -1.654782 5.932524 47.481409 28.566500 0.000000 0.000000 0.000000 7.125000 0.000000 0.000000 38.005142 54.264846 -9.719056
-0.461688 17.515747 7.911530 -8.591664 -4.349403 9.482265 0.000000 0.000000 0.000000 -19.037218 -39.206275 23.138964 0.063341 -1.624107 -4.467943 -6.111610 44.076858 -42.522793 0.716790 5.410364 15.082797 0.000000 0.000000 0.000000 26.393055 26.810994 6.596527 -0.002800 -0.343500 0.943840 0.945817 -19.815133 -18.526225 -0.005477 -0.476442 1.309143 5.145705 0.509786 0.873249 1.802571 1.227698 -10.766914 -1.049310 0.194511 -12.023763 -8.631678 -11.427007 -7.515188 8.922064 -16.924091 22.219085 2.488839 -7.855441 9.777776 0.000000 0.000000 0.000000 -1.281258 10.973059 -13.938023 10.347363 -17.281092 1.576609 14.672591 28.906282 9.846639 0.000000 0.000000 0.000000 -7.125000 0.000000 0.000000 -8.765089 19.866529 -5.326753 0.000000 0.000000 0.000000 1.410493 8.891583 4.122166 -10.561519 -17.613120 -1.640794 5.781536 47.652492 28.615377 0.000000 0.000000 0.000000 7.125000 0.000000 0.000000 37.908448 54.332576 -9.755278
-0.463298 17.514968 7.908625 -8.562943 -4.342177 9.514590 0.000000 0.000000 0.000000 -18.963008 -39.163733 22.986754 0.062490 -1.613256 -4.438054 -6.066145 43.973261 -42.436680 0.713739 5.399128 15.050453 0.000000 0.000000 0.000000 26.311149 26.726054 6.494189 -0.002800 -0.343642 0.944261 0.926217 -19.684526 -18.497069 -0.004844 -0.447678 1.230174 5.131329 0.503191 0.872553 1.776079 1.214995 -10.766124 -1.068608 0.188144 -12.022566 -8.752575 -11.483404 -7.428518 9.106887 -17.015190 22.025237 2.562414 -7.897684 9.731526 0.000000 0.000000 0.000000 -1.265325 11.031722 -13.726027 10.312927 -17.227631 1.566378 14.711363 29.112073 9.959176 0.000000 0.000000 0.000000 -7.125000 0.000000 0.000000 -8.734966 19.749533 -5.330916 0.000000 0.000000 0.000000 1.502740 8.908201 3.991584 -10.576626 -17.636438 -1.645361 5.754715 47.651506 28.544048 0.000000 0.000000 0.000000 7.125000 0.000000 0.000000 37.826572 54.280300 -9.677548
-0.465185 17.514318 7.905477 -8.540282 -4.359292 9.549512 0.000000 0.000000 0.000000 -18.889319 -39.109326 22.850962 0.062373 -1.611964 -4.434371 -6.072309 43.940014 -42.317499 0.694221 5.326183 14.841248 0.000000 0.000000 0.000000 26.251064 26.705514 6.402807 -0.002982 -0.352613 0.968841 0.910316 -19.589563 -18.501613 -0.005912 -0.496907 1.365403 5.233230 0.485790 1.269265 1.719437 1.237202 -11.078443 -1.189608 0.166794 -12.635517 -9.118810 -11.539820 -7.017362 9.248777 -17.131140 22.177738 2.670071 -7.981388 9.769802 0.000000 0.000000 0.000000 -1.229818 11.780035 -13.932233 10.405510 -17.371301 1.593913 13.889152 29.138133 9.336261 0.000000 0.000000 0.000000 -7.125000 0.000000 0.000000 -9.337404 20.425617 -5.564736 0.000000 0.000000 0.000000 1.576219 9.509236 4.085813 -10.615127 -17.695999 -1.657089 5.533300 47.613704 28.403580 0.000000 0.000000 0.000000 7.125000 0.000000 0.000000 37.513531 54.208807 -9.508374
